<svg width="119" height="24" viewBox="0 0 119 24" fill="none" xmlns="http://www.w3.org/2000/svg">
<path d="M7.104 18L4.448 13.44H2.688V18H1.232V6.848H4.832C5.67467 6.848 6.384 6.992 6.96 7.28C7.54667 7.568 7.984 7.95733 8.272 8.448C8.56 8.93867 8.704 9.49867 8.704 10.128C8.704 10.896 8.48 11.5733 8.032 12.16C7.59467 12.7467 6.93333 13.136 6.048 13.328L8.848 18H7.104ZM2.688 12.272H4.832C5.62133 12.272 6.21333 12.08 6.608 11.696C7.00267 11.3013 7.2 10.7787 7.2 10.128C7.2 9.46667 7.00267 8.95467 6.608 8.592C6.224 8.22933 5.632 8.048 4.832 8.048H2.688V12.272ZM12.3904 6.848V13.904C12.3904 14.896 12.6304 15.632 13.1104 16.112C13.601 16.592 14.2784 16.832 15.1424 16.832C15.9957 16.832 16.6624 16.592 17.1424 16.112C17.633 15.632 17.8784 14.896 17.8784 13.904V6.848H19.3344V13.888C19.3344 14.816 19.1477 15.6 18.7744 16.24C18.401 16.8693 17.8944 17.3387 17.2544 17.648C16.625 17.9573 15.9157 18.112 15.1264 18.112C14.337 18.112 13.6224 17.9573 12.9824 17.648C12.353 17.3387 11.8517 16.8693 11.4784 16.24C11.1157 15.6 10.9344 14.816 10.9344 13.888V6.848H12.3904ZM27.3473 12.256C27.7526 12.32 28.1206 12.4853 28.4513 12.752C28.7926 13.0187 29.0593 13.3493 29.2513 13.744C29.4539 14.1387 29.5553 14.56 29.5553 15.008C29.5553 15.5733 29.4113 16.0853 29.1233 16.544C28.8353 16.992 28.4139 17.3493 27.8593 17.616C27.3153 17.872 26.6699 18 25.9233 18H21.7633V6.848H25.7633C26.5206 6.848 27.1659 6.976 27.6993 7.232C28.2326 7.47733 28.6326 7.81333 28.8993 8.24C29.1659 8.66667 29.2993 9.14667 29.2993 9.68C29.2993 10.3413 29.1179 10.8907 28.7552 11.328C28.4033 11.7547 27.9339 12.064 27.3473 12.256ZM23.2193 11.664H25.6673C26.3499 11.664 26.8779 11.504 27.2513 11.184C27.6246 10.864 27.8113 10.4213 27.8113 9.856C27.8113 9.29067 27.6246 8.848 27.2513 8.528C26.8779 8.208 26.3393 8.048 25.6353 8.048H23.2193V11.664ZM25.7953 16.8C26.5206 16.8 27.0859 16.6293 27.4913 16.288C27.8966 15.9467 28.0993 15.472 28.0993 14.864C28.0993 14.2453 27.8859 13.76 27.4593 13.408C27.0326 13.0453 26.4619 12.864 25.7473 12.864H23.2193V16.8H25.7953Z" fill="white"/>
<path d="M36.576 8.4V6.336H40.432V18H38.128V8.4H36.576ZM44.5969 11.824C43.5302 11.2693 42.9969 10.4107 42.9969 9.248C42.9969 8.672 43.1409 8.14933 43.4289 7.68C43.7275 7.2 44.1702 6.82133 44.7569 6.544C45.3542 6.256 46.0795 6.112 46.9329 6.112C47.7862 6.112 48.5062 6.256 49.0929 6.544C49.6902 6.82133 50.1329 7.2 50.4209 7.68C50.7195 8.14933 50.8689 8.672 50.8689 9.248C50.8689 9.83467 50.7249 10.352 50.4369 10.8C50.1489 11.2373 49.7649 11.5787 49.2849 11.824C49.8715 12.08 50.3302 12.4533 50.6609 12.944C50.9915 13.4347 51.1569 14.016 51.1569 14.688C51.1569 15.4133 50.9702 16.048 50.5969 16.592C50.2342 17.1253 49.7329 17.536 49.0929 17.824C48.4529 18.112 47.7329 18.256 46.9329 18.256C46.1329 18.256 45.4129 18.112 44.7729 17.824C44.1435 17.536 43.6422 17.1253 43.2689 16.592C42.9062 16.048 42.7249 15.4133 42.7249 14.688C42.7249 14.016 42.8902 13.4347 43.2209 12.944C43.5515 12.4427 44.0102 12.0693 44.5969 11.824ZM48.6929 9.568C48.6929 9.04533 48.5329 8.64 48.2129 8.352C47.9035 8.064 47.4769 7.92 46.9329 7.92C46.3995 7.92 45.9729 8.064 45.6529 8.352C45.3435 8.64 45.1889 9.05067 45.1889 9.584C45.1889 10.064 45.3489 10.448 45.6689 10.736C45.9995 11.024 46.4209 11.168 46.9329 11.168C47.4449 11.168 47.8662 11.024 48.1969 10.736C48.5275 10.4373 48.6929 10.048 48.6929 9.568ZM46.9329 12.8C46.3249 12.8 45.8289 12.9547 45.4449 13.264C45.0715 13.5733 44.8849 14.016 44.8849 14.592C44.8849 15.1253 45.0662 15.5627 45.4289 15.904C45.8022 16.2347 46.3035 16.4 46.9329 16.4C47.5622 16.4 48.0582 16.2293 48.4209 15.888C48.7835 15.5467 48.9649 15.1147 48.9649 14.592C48.9649 14.0267 48.7782 13.5893 48.4049 13.28C48.0315 12.96 47.5409 12.8 46.9329 12.8ZM60.7661 8.272H55.5821V11.008C55.8061 10.7307 56.1261 10.5067 56.5421 10.336C56.9581 10.1547 57.4008 10.064 57.8701 10.064C58.7235 10.064 59.4221 10.2507 59.9661 10.624C60.5101 10.9973 60.9048 11.4773 61.1501 12.064C61.3955 12.64 61.5181 13.2587 61.5181 13.92C61.5181 15.1467 61.1661 16.1333 60.4621 16.88C59.7688 17.6267 58.7768 18 57.4861 18C56.2701 18 55.2995 17.696 54.5741 17.088C53.8488 16.48 53.4381 15.6853 53.3421 14.704H55.5181C55.6141 15.1307 55.8275 15.472 56.1581 15.728C56.4995 15.984 56.9315 16.112 57.4541 16.112C58.0835 16.112 58.5581 15.9147 58.8781 15.52C59.1981 15.1253 59.3581 14.6027 59.3581 13.952C59.3581 13.2907 59.1928 12.7893 58.8621 12.448C58.5421 12.096 58.0675 11.92 57.4381 11.92C56.9901 11.92 56.6168 12.032 56.3181 12.256C56.0195 12.48 55.8061 12.7787 55.6781 13.152H53.5341V6.304H60.7661V8.272ZM64.471 18.112C64.0657 18.112 63.7297 17.9893 63.463 17.744C63.207 17.488 63.079 17.1733 63.079 16.8C63.079 16.4267 63.207 16.1173 63.463 15.872C63.7297 15.616 64.0657 15.488 64.471 15.488C64.8657 15.488 65.191 15.616 65.447 15.872C65.703 16.1173 65.831 16.4267 65.831 16.8C65.831 17.1733 65.703 17.488 65.447 17.744C65.191 17.9893 64.8657 18.112 64.471 18.112ZM68.0833 15.472C69.1073 14.6187 69.9233 13.9093 70.5312 13.344C71.1393 12.768 71.6459 12.1707 72.0513 11.552C72.4566 10.9333 72.6593 10.3253 72.6593 9.728C72.6593 9.184 72.5313 8.75733 72.2753 8.448C72.0193 8.13867 71.6246 7.984 71.0913 7.984C70.5579 7.984 70.1473 8.16533 69.8593 8.528C69.5713 8.88 69.4219 9.36533 69.4113 9.984H67.2353C67.2779 8.704 67.6566 7.73333 68.3713 7.072C69.0966 6.41067 70.0139 6.08 71.1233 6.08C72.3393 6.08 73.2726 6.40533 73.9233 7.056C74.5739 7.696 74.8993 8.544 74.8993 9.6C74.8993 10.432 74.6753 11.2267 74.2273 11.984C73.7793 12.7413 73.2673 13.4027 72.6913 13.968C72.1153 14.5227 71.3633 15.1947 70.4353 15.984H75.1553V17.84H67.2513V16.176L68.0833 15.472ZM76.5988 9.408C76.6521 8.34133 77.0254 7.52 77.7188 6.944C78.4228 6.35733 79.3454 6.064 80.4868 6.064C81.2654 6.064 81.9321 6.20267 82.4868 6.48C83.0414 6.74667 83.4574 7.11467 83.7348 7.584C84.0228 8.04267 84.1667 8.56533 84.1667 9.152C84.1667 9.824 83.9908 10.3947 83.6388 10.864C83.2974 11.3227 82.8868 11.632 82.4068 11.792V11.856C83.0254 12.048 83.5054 12.3893 83.8468 12.88C84.1988 13.3707 84.3748 14 84.3748 14.768C84.3748 15.408 84.2254 15.9787 83.9268 16.48C83.6388 16.9813 83.2068 17.376 82.6308 17.664C82.0654 17.9413 81.3828 18.08 80.5828 18.08C79.3774 18.08 78.3961 17.776 77.6388 17.168C76.8814 16.56 76.4814 15.664 76.4388 14.48H78.6148C78.6361 15.0027 78.8121 15.424 79.1428 15.744C79.4841 16.0533 79.9481 16.208 80.5348 16.208C81.0788 16.208 81.4948 16.0587 81.7828 15.76C82.0814 15.4507 82.2308 15.056 82.2308 14.576C82.2308 13.936 82.0281 13.4773 81.6228 13.2C81.2174 12.9227 80.5881 12.784 79.7348 12.784H79.2708V10.944H79.7348C81.2494 10.944 82.0068 10.4373 82.0068 9.424C82.0068 8.96533 81.8681 8.608 81.5908 8.352C81.3241 8.096 80.9348 7.968 80.4227 7.968C79.9214 7.968 79.5321 8.10667 79.2548 8.384C78.9881 8.65067 78.8334 8.992 78.7908 9.408H76.5988Z" fill="white"/>
<path d="M99.288 13.87H96.642V16.586H94.794V13.87H92.148V12.162H94.794V9.446H96.642V12.162H99.288V13.87ZM100.938 9.6V7.794H104.312V18H102.296V9.6H100.938ZM107.34 18.098C106.985 18.098 106.691 17.9907 106.458 17.776C106.234 17.552 106.122 17.2767 106.122 16.95C106.122 16.6233 106.234 16.3527 106.458 16.138C106.691 15.914 106.985 15.802 107.34 15.802C107.685 15.802 107.97 15.914 108.194 16.138C108.418 16.3527 108.53 16.6233 108.53 16.95C108.53 17.2767 108.418 17.552 108.194 17.776C107.97 17.9907 107.685 18.098 107.34 18.098ZM116.745 9.488H112.209V11.882C112.405 11.6393 112.685 11.4433 113.049 11.294C113.413 11.1353 113.8 11.056 114.211 11.056C114.957 11.056 115.569 11.2193 116.045 11.546C116.521 11.8727 116.866 12.2927 117.081 12.806C117.295 13.31 117.403 13.8513 117.403 14.43C117.403 15.5033 117.095 16.3667 116.479 17.02C115.872 17.6733 115.004 18 113.875 18C112.811 18 111.961 17.734 111.327 17.202C110.692 16.67 110.333 15.9747 110.249 15.116H112.153C112.237 15.4893 112.423 15.788 112.713 16.012C113.011 16.236 113.389 16.348 113.847 16.348C114.397 16.348 114.813 16.1753 115.093 15.83C115.373 15.4847 115.513 15.0273 115.513 14.458C115.513 13.8793 115.368 13.4407 115.079 13.142C114.799 12.834 114.383 12.68 113.833 12.68C113.441 12.68 113.114 12.778 112.853 12.974C112.591 13.17 112.405 13.4313 112.293 13.758H110.417V7.766H116.745V9.488Z" fill="#21853E"/>
</svg>
