<svg width="134" height="24" viewBox="0 0 134 24" fill="none" xmlns="http://www.w3.org/2000/svg">
<path d="M2.688 8.032V11.76H6.752V12.96H2.688V16.8H7.232V18H1.232V6.832H7.232V8.032H2.688ZM10.8591 6.848V13.904C10.8591 14.896 11.0991 15.632 11.5791 16.112C12.0698 16.592 12.7471 16.832 13.6111 16.832C14.4645 16.832 15.1311 16.592 15.6111 16.112C16.1018 15.632 16.3471 14.896 16.3471 13.904V6.848H17.8031V13.888C17.8031 14.816 17.6165 15.6 17.2431 16.24C16.8698 16.8693 16.3631 17.3387 15.7231 17.648C15.0938 17.9573 14.3845 18.112 13.5951 18.112C12.8058 18.112 12.0911 17.9573 11.4511 17.648C10.8218 17.3387 10.3205 16.8693 9.94713 16.24C9.58446 15.6 9.40313 14.816 9.40313 13.888V6.848H10.8591ZM26.104 18L23.448 13.44H21.688V18H20.232V6.848H23.832C24.6747 6.848 25.384 6.992 25.96 7.28C26.5467 7.568 26.984 7.95733 27.272 8.448C27.56 8.93867 27.704 9.49867 27.704 10.128C27.704 10.896 27.48 11.5733 27.032 12.16C26.5947 12.7467 25.9333 13.136 25.048 13.328L27.848 18H26.104ZM21.688 12.272H23.832C24.6213 12.272 25.2133 12.08 25.608 11.696C26.0027 11.3013 26.2 10.7787 26.2 10.128C26.2 9.46667 26.0027 8.95467 25.608 8.592C25.224 8.22933 24.632 8.048 23.832 8.048H21.688V12.272Z" fill="white"/>
<path d="M34.576 8.4V6.336H38.432V18H36.128V8.4H34.576ZM40.3729 8.4V6.336H44.2289V18H41.9249V8.4H40.3729ZM47.1458 15.472C48.1698 14.6187 48.9858 13.9093 49.5938 13.344C50.2018 12.768 50.7084 12.1707 51.1138 11.552C51.5191 10.9333 51.7218 10.3253 51.7218 9.728C51.7218 9.184 51.5938 8.75733 51.3378 8.448C51.0818 8.13867 50.6871 7.984 50.1538 7.984C49.6204 7.984 49.2098 8.16533 48.9218 8.528C48.6338 8.88 48.4844 9.36533 48.4738 9.984H46.2978C46.3404 8.704 46.7191 7.73333 47.4338 7.072C48.1591 6.41067 49.0764 6.08 50.1858 6.08C51.4018 6.08 52.3351 6.40533 52.9858 7.056C53.6364 7.696 53.9618 8.544 53.9618 9.6C53.9618 10.432 53.7378 11.2267 53.2898 11.984C52.8418 12.7413 52.3298 13.4027 51.7538 13.968C51.1778 14.5227 50.4258 15.1947 49.4978 15.984H54.2178V17.84H46.3138V16.176L47.1458 15.472ZM63.4693 8.272H58.2853V11.008C58.5093 10.7307 58.8293 10.5067 59.2453 10.336C59.6613 10.1547 60.1039 10.064 60.5733 10.064C61.4266 10.064 62.1253 10.2507 62.6693 10.624C63.2133 10.9973 63.6079 11.4773 63.8533 12.064C64.0986 12.64 64.2213 13.2587 64.2213 13.92C64.2213 15.1467 63.8693 16.1333 63.1653 16.88C62.4719 17.6267 61.4799 18 60.1893 18C58.9733 18 58.0026 17.696 57.2773 17.088C56.5519 16.48 56.1413 15.6853 56.0453 14.704H58.2213C58.3173 15.1307 58.5306 15.472 58.8613 15.728C59.2026 15.984 59.6346 16.112 60.1573 16.112C60.7866 16.112 61.2613 15.9147 61.5813 15.52C61.9013 15.1253 62.0613 14.6027 62.0613 13.952C62.0613 13.2907 61.8959 12.7893 61.5653 12.448C61.2453 12.096 60.7706 11.92 60.1413 11.92C59.6933 11.92 59.3199 12.032 59.0213 12.256C58.7226 12.48 58.5093 12.7787 58.3813 13.152H56.2373V6.304H63.4693V8.272ZM65.9261 12.016C65.9261 10.1707 66.2568 8.72533 66.9181 7.68C67.5901 6.63467 68.6995 6.112 70.2461 6.112C71.7928 6.112 72.8968 6.63467 73.5581 7.68C74.2301 8.72533 74.5661 10.1707 74.5661 12.016C74.5661 13.872 74.2301 15.328 73.5581 16.384C72.8968 17.44 71.7928 17.968 70.2461 17.968C68.6995 17.968 67.5901 17.44 66.9181 16.384C66.2568 15.328 65.9261 13.872 65.9261 12.016ZM72.3581 12.016C72.3581 11.2267 72.3048 10.5653 72.1981 10.032C72.1021 9.488 71.8995 9.04533 71.5901 8.704C71.2915 8.36267 70.8435 8.192 70.2461 8.192C69.6488 8.192 69.1955 8.36267 68.8861 8.704C68.5875 9.04533 68.3848 9.488 68.2781 10.032C68.1821 10.5653 68.1341 11.2267 68.1341 12.016C68.1341 12.8267 68.1821 13.5093 68.2781 14.064C68.3741 14.608 68.5768 15.0507 68.8861 15.392C69.1955 15.7227 69.6488 15.888 70.2461 15.888C70.8435 15.888 71.2968 15.7227 71.6061 15.392C71.9155 15.0507 72.1181 14.608 72.2141 14.064C72.3101 13.5093 72.3581 12.8267 72.3581 12.016ZM77.5179 18.112C77.1125 18.112 76.7765 17.9893 76.5099 17.744C76.2539 17.488 76.1259 17.1733 76.1259 16.8C76.1259 16.4267 76.2539 16.1173 76.5099 15.872C76.7765 15.616 77.1125 15.488 77.5179 15.488C77.9125 15.488 78.2379 15.616 78.4939 15.872C78.7499 16.1173 78.8779 16.4267 78.8779 16.8C78.8779 17.1733 78.7499 17.488 78.4939 17.744C78.2379 17.9893 77.9125 18.112 77.5179 18.112ZM88.2661 8.272H83.0821V11.008C83.3061 10.7307 83.6261 10.5067 84.0421 10.336C84.4581 10.1547 84.9008 10.064 85.3701 10.064C86.2235 10.064 86.9221 10.2507 87.4661 10.624C88.0101 10.9973 88.4048 11.4773 88.6501 12.064C88.8955 12.64 89.0181 13.2587 89.0181 13.92C89.0181 15.1467 88.6661 16.1333 87.9621 16.88C87.2688 17.6267 86.2768 18 84.9861 18C83.7701 18 82.7995 17.696 82.0741 17.088C81.3488 16.48 80.9381 15.6853 80.8421 14.704H83.0181C83.1141 15.1307 83.3275 15.472 83.6581 15.728C83.9995 15.984 84.4315 16.112 84.9541 16.112C85.5835 16.112 86.0581 15.9147 86.3781 15.52C86.6981 15.1253 86.8581 14.6027 86.8581 13.952C86.8581 13.2907 86.6928 12.7893 86.3621 12.448C86.0421 12.096 85.5675 11.92 84.9381 11.92C84.4901 11.92 84.1168 12.032 83.8181 12.256C83.5195 12.48 83.3061 12.7787 83.1781 13.152H81.0341V6.304H88.2661V8.272ZM90.627 15.728V13.968L95.859 6.48H98.467V13.776H99.875V15.728H98.467V18H96.227V15.728H90.627ZM96.371 8.88L93.091 13.776H96.371V8.88Z" fill="white"/>
<path d="M114.288 13.87H111.642V16.586H109.794V13.87H107.148V12.162H109.794V9.446H111.642V12.162H114.288V13.87ZM115.938 9.6V7.794H119.312V18H117.296V9.6H115.938ZM122.34 18.098C121.985 18.098 121.691 17.9907 121.458 17.776C121.234 17.552 121.122 17.2767 121.122 16.95C121.122 16.6233 121.234 16.3527 121.458 16.138C121.691 15.914 121.985 15.802 122.34 15.802C122.685 15.802 122.97 15.914 123.194 16.138C123.418 16.3527 123.53 16.6233 123.53 16.95C123.53 17.2767 123.418 17.552 123.194 17.776C122.97 17.9907 122.685 18.098 122.34 18.098ZM131.745 9.488H127.209V11.882C127.405 11.6393 127.685 11.4433 128.049 11.294C128.413 11.1353 128.8 11.056 129.211 11.056C129.957 11.056 130.569 11.2193 131.045 11.546C131.521 11.8727 131.866 12.2927 132.081 12.806C132.295 13.31 132.403 13.8513 132.403 14.43C132.403 15.5033 132.095 16.3667 131.479 17.02C130.872 17.6733 130.004 18 128.875 18C127.811 18 126.961 17.734 126.327 17.202C125.692 16.67 125.333 15.9747 125.249 15.116H127.153C127.237 15.4893 127.423 15.788 127.713 16.012C128.011 16.236 128.389 16.348 128.847 16.348C129.397 16.348 129.813 16.1753 130.093 15.83C130.373 15.4847 130.513 15.0273 130.513 14.458C130.513 13.8793 130.368 13.4407 130.079 13.142C129.799 12.834 129.383 12.68 128.833 12.68C128.441 12.68 128.114 12.778 127.853 12.974C127.591 13.17 127.405 13.4313 127.293 13.758H125.417V7.766H131.745V9.488Z" fill="#BB2929"/>
</svg>
