<svg width="148" height="24" viewBox="0 0 148 24" fill="none" xmlns="http://www.w3.org/2000/svg">
<path d="M2.656 6.848V13.904C2.656 14.896 2.896 15.632 3.376 16.112C3.86667 16.592 4.544 16.832 5.408 16.832C6.26133 16.832 6.928 16.592 7.408 16.112C7.89867 15.632 8.144 14.896 8.144 13.904V6.848H9.6V13.888C9.6 14.816 9.41333 15.6 9.04 16.24C8.66667 16.8693 8.16 17.3387 7.52 17.648C6.89067 17.9573 6.18133 18.112 5.392 18.112C4.60267 18.112 3.888 17.9573 3.248 17.648C2.61867 17.3387 2.11733 16.8693 1.744 16.24C1.38133 15.6 1.2 14.816 1.2 13.888V6.848H2.656ZM15.5649 18.112C14.8289 18.112 14.1675 17.984 13.5809 17.728C13.0049 17.4613 12.5515 17.0987 12.2209 16.64C11.8902 16.1707 11.7195 15.632 11.7089 15.024H13.2609C13.3142 15.5467 13.5275 15.9893 13.9009 16.352C14.2849 16.704 14.8395 16.88 15.5649 16.88C16.2582 16.88 16.8022 16.7093 17.1969 16.368C17.6022 16.016 17.8049 15.568 17.8049 15.024C17.8049 14.5973 17.6875 14.2507 17.4529 13.984C17.2182 13.7173 16.9249 13.5147 16.5729 13.376C16.2209 13.2373 15.7462 13.088 15.1489 12.928C14.4129 12.736 13.8209 12.544 13.3729 12.352C12.9355 12.16 12.5569 11.8613 12.2369 11.456C11.9275 11.04 11.7729 10.4853 11.7729 9.792C11.7729 9.184 11.9275 8.64533 12.2369 8.176C12.5462 7.70667 12.9782 7.344 13.5329 7.088C14.0982 6.832 14.7435 6.704 15.4689 6.704C16.5142 6.704 17.3675 6.96533 18.0289 7.488C18.7009 8.01067 19.0795 8.704 19.1649 9.568H17.5649C17.5115 9.14133 17.2875 8.768 16.8929 8.448C16.4982 8.11733 15.9755 7.952 15.3249 7.952C14.7169 7.952 14.2209 8.112 13.8369 8.432C13.4529 8.74133 13.2609 9.17867 13.2609 9.744C13.2609 10.1493 13.3729 10.48 13.5969 10.736C13.8315 10.992 14.1142 11.1893 14.4449 11.328C14.7862 11.456 15.2609 11.6053 15.8689 11.776C16.6049 11.9787 17.1969 12.1813 17.6449 12.384C18.0929 12.576 18.4769 12.88 18.7969 13.296C19.1169 13.7013 19.2769 14.256 19.2769 14.96C19.2769 15.504 19.1329 16.016 18.8449 16.496C18.5569 16.976 18.1302 17.3653 17.5649 17.664C16.9995 17.9627 16.3329 18.112 15.5649 18.112ZM24.8915 6.848C26.1075 6.848 27.1582 7.07733 28.0435 7.536C28.9395 7.984 29.6222 8.62933 30.0915 9.472C30.5715 10.3147 30.8115 11.3067 30.8115 12.448C30.8115 13.5893 30.5715 14.5813 30.0915 15.424C29.6222 16.256 28.9395 16.896 28.0435 17.344C27.1582 17.7813 26.1075 18 24.8915 18H21.4195V6.848H24.8915ZM24.8915 16.8C26.3315 16.8 27.4302 16.4213 28.1875 15.664C28.9448 14.896 29.3235 13.824 29.3235 12.448C29.3235 11.0613 28.9395 9.97867 28.1715 9.2C27.4142 8.42133 26.3208 8.032 24.8915 8.032H22.8755V16.8H24.8915Z" fill="white"/>
<path d="M37.576 8.4V6.336H41.432V18H39.128V8.4H37.576ZM43.6769 9.408C43.7302 8.34133 44.1035 7.52 44.7969 6.944C45.5009 6.35733 46.4235 6.064 47.5649 6.064C48.3435 6.064 49.0102 6.20267 49.5649 6.48C50.1195 6.74667 50.5355 7.11467 50.8129 7.584C51.1009 8.04267 51.2449 8.56533 51.2449 9.152C51.2449 9.824 51.0689 10.3947 50.7169 10.864C50.3755 11.3227 49.9649 11.632 49.4849 11.792V11.856C50.1035 12.048 50.5835 12.3893 50.9249 12.88C51.2769 13.3707 51.4529 14 51.4529 14.768C51.4529 15.408 51.3035 15.9787 51.0049 16.48C50.7169 16.9813 50.2849 17.376 49.7089 17.664C49.1435 17.9413 48.4609 18.08 47.6609 18.08C46.4555 18.08 45.4742 17.776 44.7169 17.168C43.9595 16.56 43.5595 15.664 43.5169 14.48H45.6929C45.7142 15.0027 45.8902 15.424 46.2209 15.744C46.5622 16.0533 47.0262 16.208 47.6129 16.208C48.1569 16.208 48.5729 16.0587 48.8609 15.76C49.1595 15.4507 49.3089 15.056 49.3089 14.576C49.3089 13.936 49.1062 13.4773 48.7009 13.2C48.2955 12.9227 47.6662 12.784 46.8129 12.784H46.3489V10.944H46.8129C48.3275 10.944 49.0849 10.4373 49.0849 9.424C49.0849 8.96533 48.9462 8.608 48.6689 8.352C48.4022 8.096 48.0129 7.968 47.5009 7.968C46.9995 7.968 46.6102 8.10667 46.3329 8.384C46.0662 8.65067 45.9115 8.992 45.8689 9.408H43.6769ZM53.127 15.728V13.968L58.359 6.48H60.967V13.776H62.375V15.728H60.967V18H58.727V15.728H53.127ZM58.871 8.88L55.591 13.776H58.871V8.88ZM63.8011 12.016C63.8011 10.1707 64.1318 8.72533 64.7931 7.68C65.4651 6.63467 66.5745 6.112 68.1211 6.112C69.6678 6.112 70.7718 6.63467 71.4331 7.68C72.1051 8.72533 72.4411 10.1707 72.4411 12.016C72.4411 13.872 72.1051 15.328 71.4331 16.384C70.7718 17.44 69.6678 17.968 68.1211 17.968C66.5745 17.968 65.4651 17.44 64.7931 16.384C64.1318 15.328 63.8011 13.872 63.8011 12.016ZM70.2331 12.016C70.2331 11.2267 70.1798 10.5653 70.0731 10.032C69.9771 9.488 69.7745 9.04533 69.4651 8.704C69.1665 8.36267 68.7185 8.192 68.1211 8.192C67.5238 8.192 67.0705 8.36267 66.7611 8.704C66.4625 9.04533 66.2598 9.488 66.1531 10.032C66.0571 10.5653 66.0091 11.2267 66.0091 12.016C66.0091 12.8267 66.0571 13.5093 66.1531 14.064C66.2491 14.608 66.4518 15.0507 66.7611 15.392C67.0705 15.7227 67.5238 15.888 68.1211 15.888C68.7185 15.888 69.1718 15.7227 69.4811 15.392C69.7905 15.0507 69.9931 14.608 70.0891 14.064C70.1851 13.5093 70.2331 12.8267 70.2331 12.016ZM74.1449 12.016C74.1449 10.1707 74.4755 8.72533 75.1369 7.68C75.8089 6.63467 76.9182 6.112 78.4649 6.112C80.0115 6.112 81.1155 6.63467 81.7769 7.68C82.4489 8.72533 82.7849 10.1707 82.7849 12.016C82.7849 13.872 82.4489 15.328 81.7769 16.384C81.1155 17.44 80.0115 17.968 78.4649 17.968C76.9182 17.968 75.8089 17.44 75.1369 16.384C74.4755 15.328 74.1449 13.872 74.1449 12.016ZM80.5769 12.016C80.5769 11.2267 80.5235 10.5653 80.4169 10.032C80.3209 9.488 80.1182 9.04533 79.8089 8.704C79.5102 8.36267 79.0622 8.192 78.4649 8.192C77.8675 8.192 77.4142 8.36267 77.1049 8.704C76.8062 9.04533 76.6035 9.488 76.4969 10.032C76.4009 10.5653 76.3529 11.2267 76.3529 12.016C76.3529 12.8267 76.4009 13.5093 76.4969 14.064C76.5929 14.608 76.7955 15.0507 77.1049 15.392C77.4142 15.7227 77.8675 15.888 78.4649 15.888C79.0622 15.888 79.5155 15.7227 79.8249 15.392C80.1342 15.0507 80.3369 14.608 80.4329 14.064C80.5289 13.5093 80.5769 12.8267 80.5769 12.016ZM85.7366 18.112C85.3313 18.112 84.9953 17.9893 84.7286 17.744C84.4726 17.488 84.3446 17.1733 84.3446 16.8C84.3446 16.4267 84.4726 16.1173 84.7286 15.872C84.9953 15.616 85.3313 15.488 85.7366 15.488C86.1313 15.488 86.4566 15.616 86.7126 15.872C86.9686 16.1173 87.0966 16.4267 87.0966 16.8C87.0966 17.1733 86.9686 17.488 86.7126 17.744C86.4566 17.9893 86.1313 18.112 85.7366 18.112ZM89.3489 15.472C90.3729 14.6187 91.1889 13.9093 91.7969 13.344C92.4049 12.768 92.9115 12.1707 93.3169 11.552C93.7222 10.9333 93.9249 10.3253 93.9249 9.728C93.9249 9.184 93.7969 8.75733 93.5409 8.448C93.2849 8.13867 92.8902 7.984 92.3569 7.984C91.8235 7.984 91.4129 8.16533 91.1249 8.528C90.8369 8.88 90.6875 9.36533 90.6769 9.984H88.5009C88.5435 8.704 88.9222 7.73333 89.6369 7.072C90.3622 6.41067 91.2795 6.08 92.3889 6.08C93.6049 6.08 94.5382 6.40533 95.1889 7.056C95.8395 7.696 96.1649 8.544 96.1649 9.6C96.1649 10.432 95.9409 11.2267 95.4929 11.984C95.0449 12.7413 94.5329 13.4027 93.9569 13.968C93.3809 14.5227 92.6289 15.1947 91.7009 15.984H96.4209V17.84H88.5169V16.176L89.3489 15.472ZM97.8644 9.408C97.9177 8.34133 98.291 7.52 98.9844 6.944C99.6884 6.35733 100.611 6.064 101.752 6.064C102.531 6.064 103.198 6.20267 103.752 6.48C104.307 6.74667 104.723 7.11467 105 7.584C105.288 8.04267 105.432 8.56533 105.432 9.152C105.432 9.824 105.256 10.3947 104.904 10.864C104.563 11.3227 104.152 11.632 103.672 11.792V11.856C104.291 12.048 104.771 12.3893 105.112 12.88C105.464 13.3707 105.64 14 105.64 14.768C105.64 15.408 105.491 15.9787 105.192 16.48C104.904 16.9813 104.472 17.376 103.896 17.664C103.331 17.9413 102.648 18.08 101.848 18.08C100.643 18.08 99.6617 17.776 98.9044 17.168C98.147 16.56 97.747 15.664 97.7044 14.48H99.8804C99.9017 15.0027 100.078 15.424 100.408 15.744C100.75 16.0533 101.214 16.208 101.8 16.208C102.344 16.208 102.76 16.0587 103.048 15.76C103.347 15.4507 103.496 15.056 103.496 14.576C103.496 13.936 103.294 13.4773 102.888 13.2C102.483 12.9227 101.854 12.784 101 12.784H100.536V10.944H101C102.515 10.944 103.272 10.4373 103.272 9.424C103.272 8.96533 103.134 8.608 102.856 8.352C102.59 8.096 102.2 7.968 101.688 7.968C101.187 7.968 100.798 8.10667 100.52 8.384C100.254 8.65067 100.099 8.992 100.056 9.408H97.8644Z" fill="white"/>
<path d="M120.288 13.87H117.642V16.586H115.794V13.87H113.148V12.162H115.794V9.446H117.642V12.162H120.288V13.87ZM121.938 9.6V7.794H125.312V18H123.296V9.6H121.938ZM127.864 15.788C128.76 15.0413 129.474 14.4207 130.006 13.926C130.538 13.422 130.981 12.8993 131.336 12.358C131.691 11.8167 131.868 11.2847 131.868 10.762C131.868 10.286 131.756 9.91267 131.532 9.642C131.308 9.37133 130.963 9.236 130.496 9.236C130.029 9.236 129.67 9.39467 129.418 9.712C129.166 10.02 129.035 10.4447 129.026 10.986H127.122C127.159 9.866 127.491 9.01667 128.116 8.438C128.751 7.85933 129.553 7.57 130.524 7.57C131.588 7.57 132.405 7.85467 132.974 8.424C133.543 8.984 133.828 9.726 133.828 10.65C133.828 11.378 133.632 12.0733 133.24 12.736C132.848 13.3987 132.4 13.9773 131.896 14.472C131.392 14.9573 130.734 15.5453 129.922 16.236H134.052V17.86H127.136V16.404L127.864 15.788ZM136.379 18.098C136.024 18.098 135.73 17.9907 135.497 17.776C135.273 17.552 135.161 17.2767 135.161 16.95C135.161 16.6233 135.273 16.3527 135.497 16.138C135.73 15.914 136.024 15.802 136.379 15.802C136.724 15.802 137.009 15.914 137.233 16.138C137.457 16.3527 137.569 16.6233 137.569 16.95C137.569 17.2767 137.457 17.552 137.233 17.776C137.009 17.9907 136.724 18.098 136.379 18.098ZM145.784 9.488H141.248V11.882C141.444 11.6393 141.724 11.4433 142.088 11.294C142.452 11.1353 142.839 11.056 143.25 11.056C143.996 11.056 144.608 11.2193 145.084 11.546C145.56 11.8727 145.905 12.2927 146.12 12.806C146.334 13.31 146.442 13.8513 146.442 14.43C146.442 15.5033 146.134 16.3667 145.518 17.02C144.911 17.6733 144.043 18 142.914 18C141.85 18 141 17.734 140.366 17.202C139.731 16.67 139.372 15.9747 139.288 15.116H141.192C141.276 15.4893 141.462 15.788 141.752 16.012C142.05 16.236 142.428 16.348 142.886 16.348C143.436 16.348 143.852 16.1753 144.132 15.83C144.412 15.4847 144.552 15.0273 144.552 14.458C144.552 13.8793 144.407 13.4407 144.118 13.142C143.838 12.834 143.422 12.68 142.872 12.68C142.48 12.68 142.153 12.778 141.892 12.974C141.63 13.17 141.444 13.4313 141.332 13.758H139.456V7.766H145.784V9.488Z" fill="#21853E"/>
</svg>
